<mxfile host="Electron" modified="2023-12-14T05:17:02.224Z" agent="Mozilla/5.0 (Windows NT 10.0; Win64; x64) AppleWebKit/537.36 (KHTML, like Gecko) draw.io/21.4.0 Chrome/112.0.5615.204 Electron/24.5.1 Safari/537.36" etag="w5Tc0EVGPogotia4MzAg" version="21.4.0" type="device">
  <diagram name="Page-1" id="10a91c8b-09ff-31b1-d368-03940ed4cc9e">
    <mxGraphModel dx="1434" dy="836" grid="1" gridSize="10" guides="1" tooltips="1" connect="1" arrows="1" fold="1" page="1" pageScale="1" pageWidth="1100" pageHeight="850" background="none" math="0" shadow="0">
      <root>
        <mxCell id="0" />
        <mxCell id="1" parent="0" />
        <mxCell id="5_L0wpshtyEx2szlIJ-K-7" style="edgeStyle=orthogonalEdgeStyle;rounded=0;orthogonalLoop=1;jettySize=auto;html=1;endArrow=none;endFill=0;" edge="1" parent="1" source="62893188c0fa7362-1" target="5_L0wpshtyEx2szlIJ-K-6">
          <mxGeometry relative="1" as="geometry">
            <Array as="points">
              <mxPoint x="550" y="180" />
              <mxPoint x="280" y="180" />
            </Array>
          </mxGeometry>
        </mxCell>
        <mxCell id="5_L0wpshtyEx2szlIJ-K-24" style="edgeStyle=orthogonalEdgeStyle;rounded=0;orthogonalLoop=1;jettySize=auto;html=1;endArrow=none;endFill=0;" edge="1" parent="1" source="62893188c0fa7362-1" target="5_L0wpshtyEx2szlIJ-K-1">
          <mxGeometry relative="1" as="geometry">
            <Array as="points">
              <mxPoint x="550" y="180" />
              <mxPoint x="640" y="180" />
            </Array>
          </mxGeometry>
        </mxCell>
        <mxCell id="5_L0wpshtyEx2szlIJ-K-28" style="edgeStyle=orthogonalEdgeStyle;rounded=0;orthogonalLoop=1;jettySize=auto;html=1;endArrow=none;endFill=0;" edge="1" parent="1" source="62893188c0fa7362-1" target="5_L0wpshtyEx2szlIJ-K-27">
          <mxGeometry relative="1" as="geometry">
            <Array as="points">
              <mxPoint x="550" y="180" />
              <mxPoint x="870" y="180" />
            </Array>
          </mxGeometry>
        </mxCell>
        <mxCell id="62893188c0fa7362-1" value=".meltos" style="whiteSpace=wrap;html=1;rounded=1;shadow=1;labelBackgroundColor=none;strokeWidth=1;fontFamily=Verdana;fontSize=12;align=center;fillColor=#ffe6cc;strokeColor=#d79b00;" parent="1" vertex="1">
          <mxGeometry x="490" y="80" width="120" height="60" as="geometry" />
        </mxCell>
        <mxCell id="5_L0wpshtyEx2szlIJ-K-25" style="edgeStyle=orthogonalEdgeStyle;rounded=0;orthogonalLoop=1;jettySize=auto;html=1;entryX=0.563;entryY=-0.006;entryDx=0;entryDy=0;entryPerimeter=0;endArrow=none;endFill=0;" edge="1" parent="1" source="5_L0wpshtyEx2szlIJ-K-1" target="5_L0wpshtyEx2szlIJ-K-12">
          <mxGeometry relative="1" as="geometry">
            <Array as="points">
              <mxPoint x="640" y="290" />
              <mxPoint x="568" y="290" />
            </Array>
          </mxGeometry>
        </mxCell>
        <mxCell id="5_L0wpshtyEx2szlIJ-K-1" value="branches" style="whiteSpace=wrap;html=1;rounded=1;shadow=1;labelBackgroundColor=none;strokeWidth=1;fontFamily=Verdana;fontSize=12;align=center;fillColor=#81B1EF;strokeColor=#001DBC;fontColor=#ffffff;" vertex="1" parent="1">
          <mxGeometry x="580" y="210" width="120" height="60" as="geometry" />
        </mxCell>
        <mxCell id="5_L0wpshtyEx2szlIJ-K-21" style="edgeStyle=orthogonalEdgeStyle;rounded=0;orthogonalLoop=1;jettySize=auto;html=1;endArrow=none;endFill=0;strokeWidth=1;" edge="1" parent="1" source="5_L0wpshtyEx2szlIJ-K-6" target="5_L0wpshtyEx2szlIJ-K-17">
          <mxGeometry relative="1" as="geometry">
            <Array as="points">
              <mxPoint x="280" y="300" />
              <mxPoint x="120" y="300" />
            </Array>
          </mxGeometry>
        </mxCell>
        <mxCell id="5_L0wpshtyEx2szlIJ-K-22" style="edgeStyle=orthogonalEdgeStyle;rounded=0;orthogonalLoop=1;jettySize=auto;html=1;entryX=0.5;entryY=0;entryDx=0;entryDy=0;entryPerimeter=0;endArrow=none;endFill=0;" edge="1" parent="1" source="5_L0wpshtyEx2szlIJ-K-6">
          <mxGeometry relative="1" as="geometry">
            <mxPoint x="220" y="329.9999999999999" as="targetPoint" />
          </mxGeometry>
        </mxCell>
        <mxCell id="5_L0wpshtyEx2szlIJ-K-26" style="edgeStyle=orthogonalEdgeStyle;rounded=0;orthogonalLoop=1;jettySize=auto;html=1;endArrow=none;endFill=0;" edge="1" parent="1" source="5_L0wpshtyEx2szlIJ-K-6">
          <mxGeometry relative="1" as="geometry">
            <mxPoint x="330.0344827586207" y="329.9999999999999" as="targetPoint" />
          </mxGeometry>
        </mxCell>
        <mxCell id="5_L0wpshtyEx2szlIJ-K-6" value="Objects" style="whiteSpace=wrap;html=1;rounded=1;shadow=1;labelBackgroundColor=none;strokeWidth=1;fontFamily=Verdana;fontSize=12;align=center;fillColor=#e1d5e7;strokeColor=#9673a6;" vertex="1" parent="1">
          <mxGeometry x="220" y="210" width="120" height="60" as="geometry" />
        </mxCell>
        <mxCell id="5_L0wpshtyEx2szlIJ-K-11" value="HEAD" style="whiteSpace=wrap;html=1;shape=mxgraph.basic.document;fillColor=#dae8fc;strokeColor=#6c8ebf;" vertex="1" parent="1">
          <mxGeometry x="390" y="470" width="80" height="40" as="geometry" />
        </mxCell>
        <mxCell id="5_L0wpshtyEx2szlIJ-K-15" style="edgeStyle=orthogonalEdgeStyle;rounded=0;orthogonalLoop=1;jettySize=auto;html=1;entryX=0.5;entryY=0;entryDx=0;entryDy=0;entryPerimeter=0;endArrow=none;endFill=0;" edge="1" parent="1" source="5_L0wpshtyEx2szlIJ-K-12" target="5_L0wpshtyEx2szlIJ-K-11">
          <mxGeometry relative="1" as="geometry">
            <Array as="points">
              <mxPoint x="560" y="450" />
              <mxPoint x="430" y="450" />
            </Array>
          </mxGeometry>
        </mxCell>
        <mxCell id="5_L0wpshtyEx2szlIJ-K-30" style="edgeStyle=orthogonalEdgeStyle;rounded=0;orthogonalLoop=1;jettySize=auto;html=1;endArrow=none;endFill=0;" edge="1" parent="1" source="5_L0wpshtyEx2szlIJ-K-12" target="5_L0wpshtyEx2szlIJ-K-29">
          <mxGeometry relative="1" as="geometry">
            <Array as="points">
              <mxPoint x="560" y="490" />
              <mxPoint x="560" y="490" />
            </Array>
          </mxGeometry>
        </mxCell>
        <mxCell id="5_L0wpshtyEx2szlIJ-K-47" style="edgeStyle=orthogonalEdgeStyle;rounded=0;orthogonalLoop=1;jettySize=auto;html=1;endArrow=none;endFill=0;" edge="1" parent="1" source="5_L0wpshtyEx2szlIJ-K-12" target="5_L0wpshtyEx2szlIJ-K-46">
          <mxGeometry relative="1" as="geometry">
            <Array as="points">
              <mxPoint x="560" y="450" />
              <mxPoint x="720" y="450" />
            </Array>
          </mxGeometry>
        </mxCell>
        <mxCell id="5_L0wpshtyEx2szlIJ-K-12" value="main" style="whiteSpace=wrap;html=1;rounded=1;shadow=1;labelBackgroundColor=none;strokeWidth=1;fontFamily=Verdana;fontSize=12;align=center;fillColor=#dae8fc;strokeColor=#6c8ebf;" vertex="1" parent="1">
          <mxGeometry x="500" y="310" width="120" height="60" as="geometry" />
        </mxCell>
        <mxCell id="5_L0wpshtyEx2szlIJ-K-17" value="&amp;lt;Hash Value&amp;gt;" style="whiteSpace=wrap;html=1;shape=mxgraph.basic.document;fillColor=#e1d5e7;strokeColor=#9673a6;" vertex="1" parent="1">
          <mxGeometry x="80" y="330" width="80" height="40" as="geometry" />
        </mxCell>
        <mxCell id="5_L0wpshtyEx2szlIJ-K-44" style="edgeStyle=orthogonalEdgeStyle;rounded=0;orthogonalLoop=1;jettySize=auto;html=1;entryX=0.563;entryY=0;entryDx=0;entryDy=0;entryPerimeter=0;endArrow=none;endFill=0;dashed=1;" edge="1" parent="1" source="5_L0wpshtyEx2szlIJ-K-27" target="5_L0wpshtyEx2szlIJ-K-43">
          <mxGeometry relative="1" as="geometry" />
        </mxCell>
        <mxCell id="5_L0wpshtyEx2szlIJ-K-27" value="WORK" style="whiteSpace=wrap;html=1;shape=mxgraph.basic.document;fillColor=#f8cecc;strokeColor=#b85450;" vertex="1" parent="1">
          <mxGeometry x="830" y="220" width="80" height="40" as="geometry" />
        </mxCell>
        <mxCell id="5_L0wpshtyEx2szlIJ-K-29" value="STAGE" style="whiteSpace=wrap;html=1;shape=mxgraph.basic.document;fillColor=#dae8fc;strokeColor=#6c8ebf;" vertex="1" parent="1">
          <mxGeometry x="520" y="470" width="80" height="40" as="geometry" />
        </mxCell>
        <mxCell id="5_L0wpshtyEx2szlIJ-K-34" style="edgeStyle=orthogonalEdgeStyle;rounded=0;orthogonalLoop=1;jettySize=auto;html=1;entryX=0.5;entryY=1;entryDx=0;entryDy=0;entryPerimeter=0;endArrow=none;endFill=0;dashed=1;" edge="1" parent="1" source="5_L0wpshtyEx2szlIJ-K-33" target="5_L0wpshtyEx2szlIJ-K-17">
          <mxGeometry relative="1" as="geometry">
            <mxPoint x="189.8800000000001" y="391.29999999999995" as="targetPoint" />
          </mxGeometry>
        </mxCell>
        <mxCell id="5_L0wpshtyEx2szlIJ-K-33" value="ファイル名はデータのハッシュ値となる&lt;br&gt;データはGｚ形式で圧縮されている。&lt;br&gt;データの形式はCommit, Tree, Fileの3つのいずれか" style="text;html=1;align=center;verticalAlign=middle;resizable=0;points=[];autosize=1;strokeColor=none;fillColor=none;" vertex="1" parent="1">
          <mxGeometry x="10" y="420" width="300" height="60" as="geometry" />
        </mxCell>
        <mxCell id="5_L0wpshtyEx2szlIJ-K-35" value="&amp;lt;Hash Value&amp;gt;" style="whiteSpace=wrap;html=1;shape=mxgraph.basic.document;fillColor=#e1d5e7;strokeColor=#9673a6;" vertex="1" parent="1">
          <mxGeometry x="180" y="330" width="80" height="40" as="geometry" />
        </mxCell>
        <mxCell id="5_L0wpshtyEx2szlIJ-K-37" value="&amp;lt;Hash Value&amp;gt;" style="whiteSpace=wrap;html=1;shape=mxgraph.basic.document;fillColor=#e1d5e7;strokeColor=#9673a6;" vertex="1" parent="1">
          <mxGeometry x="290" y="330" width="80" height="40" as="geometry" />
        </mxCell>
        <mxCell id="5_L0wpshtyEx2szlIJ-K-40" style="edgeStyle=orthogonalEdgeStyle;rounded=0;orthogonalLoop=1;jettySize=auto;html=1;entryX=0.5;entryY=1;entryDx=0;entryDy=0;entryPerimeter=0;endArrow=none;endFill=0;dashed=1;" edge="1" parent="1" source="5_L0wpshtyEx2szlIJ-K-39" target="5_L0wpshtyEx2szlIJ-K-11">
          <mxGeometry relative="1" as="geometry" />
        </mxCell>
        <mxCell id="5_L0wpshtyEx2szlIJ-K-39" value="最新のコミットオブジェクトのハッシュ値" style="text;html=1;align=center;verticalAlign=middle;resizable=0;points=[];autosize=1;strokeColor=none;fillColor=none;" vertex="1" parent="1">
          <mxGeometry x="230" y="540" width="250" height="30" as="geometry" />
        </mxCell>
        <mxCell id="5_L0wpshtyEx2szlIJ-K-42" style="edgeStyle=orthogonalEdgeStyle;rounded=0;orthogonalLoop=1;jettySize=auto;html=1;entryX=0.5;entryY=1;entryDx=0;entryDy=0;entryPerimeter=0;endArrow=none;endFill=0;dashed=1;" edge="1" parent="1" source="5_L0wpshtyEx2szlIJ-K-41" target="5_L0wpshtyEx2szlIJ-K-29">
          <mxGeometry relative="1" as="geometry" />
        </mxCell>
        <mxCell id="5_L0wpshtyEx2szlIJ-K-41" value="ステージされているObjectのデータと&lt;br&gt;元のファイルパスを元に作成されたTree" style="text;html=1;align=center;verticalAlign=middle;resizable=0;points=[];autosize=1;strokeColor=none;fillColor=none;" vertex="1" parent="1">
          <mxGeometry x="440" y="585" width="240" height="40" as="geometry" />
        </mxCell>
        <mxCell id="5_L0wpshtyEx2szlIJ-K-43" value="現在作業中のブランチ名" style="text;html=1;align=center;verticalAlign=middle;resizable=0;points=[];autosize=1;strokeColor=none;fillColor=none;" vertex="1" parent="1">
          <mxGeometry x="780" y="290" width="160" height="30" as="geometry" />
        </mxCell>
        <mxCell id="5_L0wpshtyEx2szlIJ-K-49" style="edgeStyle=orthogonalEdgeStyle;rounded=0;orthogonalLoop=1;jettySize=auto;html=1;entryX=0.524;entryY=-0.112;entryDx=0;entryDy=0;entryPerimeter=0;dashed=1;endArrow=none;endFill=0;" edge="1" parent="1" source="5_L0wpshtyEx2szlIJ-K-46" target="5_L0wpshtyEx2szlIJ-K-48">
          <mxGeometry relative="1" as="geometry" />
        </mxCell>
        <mxCell id="5_L0wpshtyEx2szlIJ-K-46" value="NOW" style="whiteSpace=wrap;html=1;shape=mxgraph.basic.document;fillColor=#dae8fc;strokeColor=#6c8ebf;" vertex="1" parent="1">
          <mxGeometry x="680" y="470" width="80" height="40" as="geometry" />
        </mxCell>
        <mxCell id="5_L0wpshtyEx2szlIJ-K-48" value="最新のファイルパスとデータを元に作成されたTree&lt;br&gt;のハッシュ値" style="text;html=1;align=center;verticalAlign=middle;resizable=0;points=[];autosize=1;strokeColor=none;fillColor=none;" vertex="1" parent="1">
          <mxGeometry x="680" y="585" width="300" height="40" as="geometry" />
        </mxCell>
      </root>
    </mxGraphModel>
  </diagram>
</mxfile>
